<?xml version="1.0" encoding="UTF-8"?>
<svg id="Camada_2" data-name="Camada 2" xmlns="http://www.w3.org/2000/svg" viewBox="0 0 326.08 314">
  <g id="Camada_1-2" data-name="Camada 1">
    <path d="m277.15,314H0V36c2.15.06,4.31.16,6.46.16,87.99,0,175.99.01,263.98.01,2.1,0,4.2,0,6.7,0v277.82Zm-14.98-262.65H14.31v247.39h247.86V51.35Z"/>
    <path d="m282.14,314c.07-2.49.27-4.98.17-7.47-.19-5.06-.64-10.07,6.03-11.69.83-.2,1.68-2.33,1.7-3.58.15-8.14.23-16.3-.06-24.44-.05-1.52-1.53-3.77-2.9-4.32-4.1-1.65-5.28-4.33-4.82-8.5.34-3.11.07-6.3.07-10.38,2.22,1.01,3.97,1.65,5.56,2.56,11.45,6.5,22.83,13.14,34.35,19.53,2.61,1.45,3.99,2.94,3.82,6.13-.28,4.97-.23,9.98,0,14.96.12,2.72-.88,3.99-3.25,5.27-11.84,6.44-23.55,13.14-35.28,19.8-.91.52-1.6,1.42-2.4,2.14h-2.99Zm18.26-44.62v19.29c5.81-3.31,10.93-6.23,17.19-9.79-6.44-3.56-11.54-6.37-17.19-9.5Z"/>
    <path d="m284.13,0c5.8,3.62,11.52,7.38,17.42,10.84,7.25,4.26,14.7,8.17,21.92,12.48,1.22.73,2.33,2.69,2.41,4.13.28,5.48.24,10.99.03,16.48-.06,1.41-.83,3.44-1.91,4.06-13.53,7.79-27.18,15.38-41.64,23.49,0-5.36-.35-9.83.18-14.19.19-1.59,2.24-3.3,3.85-4.28,2.61-1.59,4.01-3.21,3.84-6.61-.35-7.14-.25-14.32-.04-21.48.09-3.07-.75-5.18-3.66-6.22-3.52-1.26-4.65-3.75-4.23-7.36.44-3.76.57-7.55.84-11.33.33,0,.66,0,1,0Zm16.02,45.49c5.9-3.22,10.99-6.01,17.59-9.61-6.58-3.71-11.91-6.71-17.59-9.91v19.52Z"/>
    <path d="m0,1c4.14.04,8.31.37,12.42.02,3.8-.32,5.75,1.33,7.21,4.55,2.04,4.51,4.35,8.9,6.86,13.99,2.7-5.37,4.9-10.34,7.68-14.97.97-1.61,3.28-3.13,5.12-3.33,4.38-.48,8.85-.16,14.16-.16,0,9.34.15,18.24-.06,27.14-.1,4.21-3.67,2.18-5.75,2.46-2.08.29-4.64.51-4.5-2.9.18-4.15.49-8.29.68-12.43.09-2.05.02-4.12.02-6.18l-1.31-.33c-2.93,5.37-5.77,10.78-8.82,16.08-1.19,2.06-2.51,4.96-4.36,5.52-3.36,1.02-6.94.92-9.03-3.57-2.9-6.2-6.58-12.03-10.93-17.78,0,3.82-.03,7.63.02,11.45.02,1.83.1,3.66.34,5.47.5,3.77-1.1,5.17-4.78,4.78-1.63-.17-3.3.1-4.95.18V1Z"/>
    <path d="m325.64,242.68h-43.3c0-4.33-.25-8.47.17-12.54.11-1.07,2.22-2.62,3.53-2.75,3.77-.37,7.6-.13,11.76-.13v-31.2h-15.2v-14.72h43.08v14.38h-14.38v31.33h14.35v15.63Z"/>
    <path d="m293.18,135.97h-10.57v-13.6h43.38c0,3.12,0,6.38,0,9.63,0,9.49-.16,18.97.03,28.46.32,16.6-7.11,18.6-21.09,17.09-8.13-.87-10.96-3.39-11.63-14.29-.54-8.78-.11-17.61-.11-27.28Zm21.86.03c-3.16,0-5.65-.2-8.08.1-1.01.12-2.7,1.3-2.71,2.02-.11,6.95-.06,13.92.21,20.87.14,3.7,2.75,4.24,5.96,4.13,3.61-.12,4.53-2.39,4.59-5.2.14-7.11.05-14.22.05-21.93Z"/>
    <path d="m282.73,72.15h42.9v14.78h-31.46v32.64h-11.44v-47.41Z"/>
    <path d="m138.71,21.28V1.5h9.56v29.27c-4.99,0-9.77.19-14.52-.12-1.32-.09-2.83-1.42-3.76-2.58-4.9-6.16-9.65-12.45-15.19-19.67v21.34c-.77.52-1.03.84-1.31.86q-9.58.79-9.59-8.73c0-5.66.07-11.31-.03-16.97-.05-2.71.9-4.12,3.75-3.82.16.02.33,0,.5,0q13.71-.46,23.04,12.33c2.09,2.86,4.27,5.64,6.4,8.46.38-.21.76-.41,1.14-.62Z"/>
    <path d="m243.39,30.8c-5.6-.62-10.83,2.39-13.6-3.89-7.42-.06-15.43-1.89-22.06.37-5.59,1.91-5.58,4.2-13.34,2.86,5.34-9.25,10.52-18.38,15.92-27.37.57-.95,2.42-1.53,3.71-1.6,12.44-.69,12.39-.62,18.5,10.55,3.31,6.05,6.82,11.98,10.88,19.08Zm-18.24-12.01c-.66-1.44-1.06-2.69-1.74-3.74-1.39-2.12-2.93-4.14-4.41-6.2-1.59,1.92-3.26,3.79-4.73,5.8-.82,1.12-1.32,2.48-2.18,4.15h13.06Z"/>
    <path d="m103.21,30.92c-5.47-1.02-11.01,2.67-13.6-4.21-7.24,0-14.49.01-21.73.02-2.61,6.88-8.16,3.18-13.75,4.19,5.94-10.22,11.2-19.5,16.8-28.56.63-1.02,3.14-.92,4.8-1.24,7.62-1.46,12.43,1.16,15.58,8.74,2.93,7.05,7.5,13.42,11.91,21.06Zm-24.52-23.59c-2.57,4.53-4.38,7.72-6.44,11.36h13.03c-2.18-3.76-4.02-6.93-6.59-11.36Z"/>
    <path d="m152.86,1.38h9.21c.41,5.85.98,11.58,1.13,17.32.08,3.12,1.79,3.95,4.28,4.27.65.08,1.32.02,1.99.04q14.78.35,14.6-14.5-.1-8.03,10.59-6.98c-.52,7.94-.64,16-1.73,23.93-.59,4.33-5.25,5.07-8.67,5.18-7.73.25-15.48-.4-23.22-.53-5.44-.09-7.8-3.47-8.08-8.15-.4-6.74-.1-13.53-.1-20.58Z"/>
    <path d="m244.55,30.46V1.52h10.29v21.38h21.99v7.56h-32.28Z"/>
    <path d="m79.25,163.17c.48,3.38,1.09,6.29,1.27,9.22.56,9.18,3.94,11.47,13.16,11.57,24.88.28,49.77.2,74.66.1,5.77-.02,11.57-.4,17.3-1.11,7.79-.96,10.21-4.39,10.01-13.1-.17-7.28-2.95-10.67-10.57-10.9-20.73-.63-41.46-.81-62.2-1.16-2.8-.05-5.61,0-8.82,0v-34.76c1.56,0,3.31,0,5.05,0,15.62,0,31.24.16,46.85-.1,5.74-.1,11.51-.94,17.19-1.9,5.9-.99,9.14-5.16,9.27-11.03.15-6.52-2.15-9.9-8.74-11.11-5.82-1.07-11.79-1.74-17.7-1.81-19.6-.22-39.21-.15-58.82-.03-5.29.03-10.6.44-15.86,1.01-7.07.76-10.34,4.59-10.57,11.89-.07,2.32-.01,4.64-.01,7.41H25.88c-3.43-27.89,2.56-46.89,31.28-52.13,13.75-2.51,27.86-3.62,41.85-4.05,27.04-.83,54.12-1.26,81.16-.79,15.92.28,32.07.42,47.39,6.32,10.62,4.09,18.54,10.86,19.9,22.52,1.1,9.44,1.49,19.2.36,28.59-1.47,12.24-11.3,16.97-21.93,20.04-1.37.4-2.74.8-4.46,1.3,5.91,1.89,11.42,3.32,16.67,5.39,8.09,3.2,12.27,9.72,13.71,18.09,1.85,10.73,1.88,21.44-1.07,32.01-2.48,8.9-8.12,15.45-16.7,18.29-9.14,3.02-18.65,6.21-28.12,6.69-32.94,1.68-65.93,2.69-98.91,3.02-18.29.19-36.75-.14-54.6-5.24-22.15-6.33-25.66-17.31-27.32-33.57-.57-5.62-.68-11.31-.62-16.96.01-1.25,1.62-3.54,2.52-3.55,17.4-.21,34.81-.16,52.26-.16Z"/>
    <path d="m25.07,288.87v-55.4c1.36-.14,2.62-.37,3.88-.37,17.1,0,34.2-.04,51.3.08,3.45.02,6.94.4,10.33,1.06,8.12,1.58,12.5,6.29,13,15.05.48,8.39.44,16.86-.07,25.25-.51,8.39-6.49,13.89-16.88,14.18-20.36.56-40.76.17-61.55.17Zm18.04-14.44c.66.26.95.47,1.25.48,8.14.05,16.3.48,24.41.02,17.17-.97,17.44.02,16.94-19-.03-1.11-.23-2.51-.92-3.26-1.56-1.72-3.42-4.39-5.24-4.44-12.06-.4-24.14-.2-36.45-.2v26.42Z"/>
    <path d="m116.51,257.88c-.84-4.8-2.6-9.54-2.24-14.11.57-7.27,4.41-10.45,11.81-10.62,12.45-.29,24.92-.34,37.37-.01,9.43.25,12.47,5,11.8,17.47h-16.01c-.33-1.25-.73-2.77-1.29-4.87-7.7,0-15.41-.1-23.11.11-1.1.03-2.15,1.51-3.23,2.31.85,1.06,1.48,2.59,2.59,3.1,10.13,4.7,20.34,9.23,30.97,14.02.23-2.48.41-4.53.63-6.85h15.42c0,3.37.54,6.76-.15,9.87-.69,3.15.05,4.37,2.93,5.42,3.52,1.28,6.82,3.16,10.38,4.86-.41.87-.68,1.45-.97,2.03-4.65,9.28-4.68,9.35-13.73,4.83-2.28-1.14-3.71-.78-6.1.28-4.71,2.08-9.98,3.81-15.07,3.93-12.57.3-25.18-.1-37.75-.76-8.85-.46-12.92-5.33-13.06-14.22-.02-1.33-.02-2.67,0-4,.05-8.67,1.85-10.99,8.82-12.78Zm42.14,19.13c.08-.32.16-.65.25-.97-8.66-3.69-17.27-7.53-26.03-10.95-1.82-.71-5.52-.61-6.12.43-1.25,2.16-1.63,5.31-1.15,7.82.27,1.45,2.87,3.45,4.48,3.51,9.52.33,19.05.16,28.58.16Z"/>
    <path d="m252.77,233.45v14.27h-26.37v40.86h-20.55v-40.52h-26.04v-14.6h72.97Z"/>
  </g>
</svg>